<svg xmlns="http://www.w3.org/2000/svg" viewBox="0 0 512 512" role="img" aria-labelledby="title desc">
  <title id="title">PhantomBugz founder avatar</title>
  <desc id="desc">A platform-ready founder avatar with a compact phantom insect helmet, signal visor, and small-size readable silhouette.</desc>
  <defs>
    <linearGradient id="bg" x1="44" y1="46" x2="466" y2="475" gradientUnits="userSpaceOnUse">
      <stop stop-color="#082226"/>
      <stop offset=".52" stop-color="#031014"/>
      <stop offset="1" stop-color="#020606"/>
    </linearGradient>
    <linearGradient id="shell" x1="150" y1="74" x2="362" y2="438" gradientUnits="userSpaceOnUse">
      <stop stop-color="#173f46"/>
      <stop offset=".42" stop-color="#0b2228"/>
      <stop offset="1" stop-color="#061013"/>
    </linearGradient>
    <linearGradient id="visor" x1="148" y1="212" x2="364" y2="254" gradientUnits="userSpaceOnUse">
      <stop stop-color="#37ff9a"/>
      <stop offset=".5" stop-color="#20d8ff"/>
      <stop offset="1" stop-color="#0b5662"/>
    </linearGradient>
    <filter id="glow" x="-40%" y="-40%" width="180%" height="180%">
      <feDropShadow dx="0" dy="0" stdDeviation="8" flood-color="#37ff9a" flood-opacity=".34"/>
      <feDropShadow dx="0" dy="18" stdDeviation="26" flood-color="#000000" flood-opacity=".78"/>
    </filter>
  </defs>
  <rect width="512" height="512" rx="96" fill="url(#bg)"/>
  <path d="M65 152c38 5 65 20 81 45M447 152c-38 5-65 20-81 45M70 352c40-10 70-27 89-52M442 352c-40-10-70-27-89-52" fill="none" stroke="#123c44" stroke-width="18" stroke-linecap="round"/>
  <path d="M122 150 72 98M390 150l50-52" fill="none" stroke="#17a8ff" stroke-width="18" stroke-linecap="round"/>
  <path d="M74 98H48M438 98h26" fill="none" stroke="#37ff9a" stroke-width="12" stroke-linecap="round"/>
  <path d="M256 54c82 0 146 67 146 153v68c0 76-45 140-116 169h-60c-71-29-116-93-116-169v-68c0-86 64-153 146-153Z" fill="url(#shell)" filter="url(#glow)"/>
  <path d="M160 195c26-36 58-54 96-54s70 18 96 54c-7 68-39 102-96 102s-89-34-96-102Z" fill="#031014" stroke="#23606a" stroke-width="12"/>
  <path d="M177 205c22-28 49-42 79-42s57 14 79 42c-19 39-45 58-79 58s-60-19-79-58Z" fill="url(#visor)"/>
  <path d="M191 215h130M213 194h86M214 239h84" fill="none" stroke="#031014" stroke-width="12" stroke-linecap="round" opacity=".82"/>
  <path d="M256 84c23 33 36 68 39 105l-39 31-39-31c3-37 16-72 39-105Z" fill="#02080a" opacity=".84"/>
  <path d="M183 322c23 24 47 36 73 36s50-12 73-36" fill="none" stroke="#37ff9a" stroke-width="13" stroke-linecap="round"/>
  <path d="M217 389h78" fill="none" stroke="#17a8ff" stroke-width="17" stroke-linecap="round"/>
  <path d="M118 250h48M346 250h48M139 387h-26M399 387h-26" fill="none" stroke="#37ff9a" stroke-width="11" stroke-linecap="round" opacity=".84"/>
</svg>
