<svg xmlns="http://www.w3.org/2000/svg" viewBox="0 0 512 512" role="img" aria-labelledby="title desc">
  <title id="title">PhantomBugz mark</title>
  <desc id="desc">A green and blue phantom insect mark with binary wing cuts.</desc>
  <defs>
    <linearGradient id="g" x1="90" y1="70" x2="430" y2="450" gradientUnits="userSpaceOnUse">
      <stop stop-color="#37ff9a"/>
      <stop offset=".55" stop-color="#16a9ff"/>
      <stop offset="1" stop-color="#0a3238"/>
    </linearGradient>
    <filter id="soft">
      <feDropShadow dx="0" dy="18" stdDeviation="24" flood-color="#051111" flood-opacity=".7"/>
      <feDropShadow dx="0" dy="0" stdDeviation="8" flood-color="#37ff9a" flood-opacity=".32"/>
    </filter>
  </defs>
  <rect width="512" height="512" rx="84" fill="#031014"/>
  <path d="M145 176c31-58 82-88 111-88s80 30 111 88c33 61 34 135 3 190-28 50-72 70-114 70s-86-20-114-70c-31-55-30-129 3-190Z" fill="#071c20"/>
  <path d="M256 92c38 0 84 48 104 104 18 51 10 111-21 155-24 34-52 51-83 51s-59-17-83-51c-31-44-39-104-21-155 20-56 66-104 104-104Z" fill="url(#g)" filter="url(#soft)"/>
  <path d="M256 118c17 24 27 49 31 76l-31 23-31-23c4-27 14-52 31-76Z" fill="#031014" opacity=".78"/>
  <path d="M180 208c-40-5-75-21-105-47M332 208c40-5 75-21 105-47M181 285c-44 4-83 19-119 45M331 285c44 4 83 19 119 45" fill="none" stroke="#37ff9a" stroke-width="14" stroke-linecap="round" opacity=".76"/>
  <path d="M207 217h98M194 256h124M207 295h98" fill="none" stroke="#031014" stroke-width="18" stroke-linecap="round" opacity=".8"/>
  <path d="M236 168h40v22h-40zM215 335h82v18h-82zM223 368h66v16h-66z" fill="#041216" opacity=".92"/>
  <path d="M175 171l-36-39M337 171l36-39" fill="none" stroke="#17a8ff" stroke-width="16" stroke-linecap="round"/>
  <path d="M161 126h-18M369 126h-18M168 384h-26M370 384h-26" stroke="#37ff9a" stroke-width="12" stroke-linecap="round"/>
</svg>
